<svg xmlns="http://www.w3.org/2000/svg" width="1480" height="1080" viewBox="0 0 1480 1080">
<defs>
  <linearGradient id="hd" x1="0" y1="0" x2="1" y2="0"><stop offset="0" stop-color="#28133f"/><stop offset="1" stop-color="#3a1f5c"/></linearGradient>
  <marker id="ah" viewBox="0 0 10 10" refX="9" refY="5" markerWidth="7" markerHeight="7" orient="auto-start-reverse"><path d="M0,0 L10,5 L0,10 z" fill="#3a1f5c"/></marker>
</defs>
<rect width="1480" height="1080" fill="#f7f4ee"/>
<rect x="0" y="0" width="1480" height="92" fill="url(#hd)"/>
<circle cx="42" cy="46" r="15" fill="#e0855f"/><circle cx="42" cy="46" r="5" fill="#28133f"/>
<text x="70" y="42" font-family="Segoe UI, Arial" font-size="26" font-weight="700" fill="#ffffff">Claude FDE Academy (Data &amp; AI) — Portal Architecture</text>
<text x="70" y="70" font-family="Segoe UI, Arial" font-size="14" fill="#b9a6cf">8-week intensive · React SPA · Vite + TypeScript + Tailwind · client-only today, backend-ready (one store seam)</text>
<rect x="560" y="116" width="360" height="46" rx="10" fill="#3a1f5c" stroke="#28133f" stroke-width="1.5"/>
<text x="740" y="133" text-anchor="middle" font-family="Segoe UI, Arial" font-size="14" font-weight="700" fill="#fff">Browser</text>
<text x="740" y="152" text-anchor="middle" font-family="Segoe UI, Arial" font-size="11.5" fill="#b9a6cf">static host / GitHub Pages / Vite dev</text>
<rect x="430" y="200" width="620" height="54" rx="10" fill="#fff" stroke="#cc6a44" stroke-width="1.5"/>
<text x="740" y="221" text-anchor="middle" font-family="Segoe UI, Arial" font-size="14" font-weight="700" fill="#1c1a17">main.tsx · HashRouter → App.tsx (Routes)</text>
<text x="740" y="240" text-anchor="middle" font-family="Segoe UI, Arial" font-size="11.5" fill="#6b655c">Layout: Sidebar · TopBar · theme</text>
<line x1="740" y1="162" x2="740" y2="200" stroke="#3a1f5c" stroke-width="2" marker-end="url(#ah)" />
<rect x="40" y="288" width="1400" height="96" rx="16" fill="#efe6f2" stroke="#d8ccdf" stroke-width="1.5" />
<text x="56" y="310" font-family="Segoe UI, Arial" font-size="13" font-weight="700" letter-spacing="1.5" fill="#6b655c">PAGES — routed views</text>
<rect x="54" y="320" width="158" height="48" rx="10" fill="#fff" stroke="#d9c3e0" stroke-width="1.5"/>
<text x="133" y="344" text-anchor="middle" dominant-baseline="central" font-family="Segoe UI, Arial" font-size="13" font-weight="600" fill="#1c1a17">/ Home</text>
<rect x="227.4" y="320" width="158" height="48" rx="10" fill="#fff" stroke="#d9c3e0" stroke-width="1.5"/>
<text x="306.4" y="344" text-anchor="middle" dominant-baseline="central" font-family="Segoe UI, Arial" font-size="13" font-weight="600" fill="#1c1a17">/week/:id</text>
<rect x="400.8" y="320" width="158" height="48" rx="10" fill="#fff" stroke="#d9c3e0" stroke-width="1.5"/>
<text x="479.8" y="344" text-anchor="middle" dominant-baseline="central" font-family="Segoe UI, Arial" font-size="13" font-weight="600" fill="#1c1a17">/belts</text>
<rect x="574.2" y="320" width="158" height="48" rx="10" fill="#fff" stroke="#d9c3e0" stroke-width="1.5"/>
<text x="653.2" y="344" text-anchor="middle" dominant-baseline="central" font-family="Segoe UI, Arial" font-size="13" font-weight="600" fill="#1c1a17">/resources</text>
<rect x="747.6" y="320" width="158" height="48" rx="10" fill="#fff" stroke="#d9c3e0" stroke-width="1.5"/>
<text x="826.6" y="344" text-anchor="middle" dominant-baseline="central" font-family="Segoe UI, Arial" font-size="13" font-weight="600" fill="#1c1a17">/certificate</text>
<rect x="921" y="320" width="158" height="48" rx="10" fill="#fff" stroke="#d9c3e0" stroke-width="1.5"/>
<text x="1000" y="344" text-anchor="middle" dominant-baseline="central" font-family="Segoe UI, Arial" font-size="13" font-weight="600" fill="#1c1a17">/setup</text>
<rect x="1094.4" y="320" width="158" height="48" rx="10" fill="#fff" stroke="#d9c3e0" stroke-width="1.5"/>
<text x="1173.4" y="344" text-anchor="middle" dominant-baseline="central" font-family="Segoe UI, Arial" font-size="13" font-weight="600" fill="#1c1a17">/architecture</text>
<rect x="1267.8" y="320" width="158" height="48" rx="10" fill="#fff" stroke="#d9c3e0" stroke-width="1.5"/>
<text x="1346.8" y="344" text-anchor="middle" dominant-baseline="central" font-family="Segoe UI, Arial" font-size="13" font-weight="600" fill="#1c1a17">/coe</text>
<line x1="740" y1="254" x2="740" y2="288" stroke="#3a1f5c" stroke-width="2" marker-end="url(#ah)" />
<rect x="40" y="410" width="1400" height="96" rx="16" fill="#f6e6dd" stroke="#d8ccdf" stroke-width="1.5" />
<text x="56" y="432" font-family="Segoe UI, Arial" font-size="13" font-weight="700" letter-spacing="1.5" fill="#6b655c">COMPONENTS — presentational</text>
<rect x="54" y="442" width="158" height="48" rx="10" fill="#fff" stroke="#e8cebf" stroke-width="1.5"/>
<text x="133" y="466" text-anchor="middle" dominant-baseline="central" font-family="Segoe UI, Arial" font-size="12.5" font-weight="600" fill="#1c1a17">DayCard</text>
<rect x="227.4" y="442" width="158" height="48" rx="10" fill="#fff" stroke="#e8cebf" stroke-width="1.5"/>
<text x="306.4" y="466" text-anchor="middle" dominant-baseline="central" font-family="Segoe UI, Arial" font-size="12.5" font-weight="600" fill="#1c1a17">Quiz</text>
<rect x="400.8" y="442" width="158" height="48" rx="10" fill="#fff" stroke="#e8cebf" stroke-width="1.5"/>
<text x="479.8" y="466" text-anchor="middle" dominant-baseline="central" font-family="Segoe UI, Arial" font-size="12.5" font-weight="600" fill="#1c1a17">CodeBlock</text>
<rect x="574.2" y="442" width="158" height="48" rx="10" fill="#fff" stroke="#e8cebf" stroke-width="1.5"/>
<text x="653.2" y="466" text-anchor="middle" dominant-baseline="central" font-family="Segoe UI, Arial" font-size="12.5" font-weight="600" fill="#1c1a17">ResourceLink</text>
<rect x="747.6" y="442" width="158" height="48" rx="10" fill="#fff" stroke="#e8cebf" stroke-width="1.5"/>
<text x="826.6" y="466" text-anchor="middle" dominant-baseline="central" font-family="Segoe UI, Arial" font-size="12.5" font-weight="600" fill="#1c1a17">WeekHeader</text>
<rect x="921" y="442" width="158" height="48" rx="10" fill="#fff" stroke="#e8cebf" stroke-width="1.5"/>
<text x="1000" y="466" text-anchor="middle" dominant-baseline="central" font-family="Segoe UI, Arial" font-size="12.5" font-weight="600" fill="#1c1a17">ProgressRing</text>
<rect x="1094.4" y="442" width="158" height="48" rx="10" fill="#fff" stroke="#e8cebf" stroke-width="1.5"/>
<text x="1173.4" y="466" text-anchor="middle" dominant-baseline="central" font-family="Segoe UI, Arial" font-size="12.5" font-weight="600" fill="#1c1a17">RefArchitecture</text>
<rect x="1267.8" y="442" width="158" height="48" rx="10" fill="#fff" stroke="#e8cebf" stroke-width="1.5"/>
<text x="1346.8" y="466" text-anchor="middle" dominant-baseline="central" font-family="Segoe UI, Arial" font-size="12.5" font-weight="600" fill="#1c1a17">ui · icons · RichText</text>
<line x1="740" y1="384" x2="740" y2="410" stroke="#3a1f5c" stroke-width="2" marker-end="url(#ah)" />
<rect x="40" y="536" width="884" height="178" rx="16" fill="#eef4e8" stroke="#d8ccdf" stroke-width="1.5" />
<text x="56" y="558" font-family="Segoe UI, Arial" font-size="13" font-weight="700" letter-spacing="1.5" fill="#6b655c">CURRICULUM DATA — static, type-checked</text>
<rect x="60" y="566" width="844" height="46" rx="10" fill="#fff" stroke="#4f8a3a" stroke-width="1.5"/>
<text x="482" y="589" text-anchor="middle" dominant-baseline="central" font-family="Segoe UI, Arial" font-size="14" font-weight="600" fill="#1c1a17">data/weeks/week01..08   →   WEEKS  (8 weeks · 40 days)</text>
<rect x="60" y="630" width="191" height="44" rx="10" fill="#fff" stroke="#cde0c2" stroke-width="1.5"/>
<text x="155.5" y="652" text-anchor="middle" dominant-baseline="central" font-family="Segoe UI, Arial" font-size="13" font-weight="600" fill="#1c1a17">types.ts</text>
<rect x="271" y="630" width="191" height="44" rx="10" fill="#fff" stroke="#cde0c2" stroke-width="1.5"/>
<text x="366.5" y="652" text-anchor="middle" dominant-baseline="central" font-family="Segoe UI, Arial" font-size="13" font-weight="600" fill="#1c1a17">program.ts</text>
<rect x="482" y="630" width="191" height="44" rx="10" fill="#fff" stroke="#cde0c2" stroke-width="1.5"/>
<text x="577.5" y="652" text-anchor="middle" dominant-baseline="central" font-family="Segoe UI, Arial" font-size="13" font-weight="600" fill="#1c1a17">links.ts</text>
<rect x="693" y="630" width="191" height="44" rx="10" fill="#fff" stroke="#cde0c2" stroke-width="1.5"/>
<text x="788.5" y="652" text-anchor="middle" dominant-baseline="central" font-family="Segoe UI, Arial" font-size="13" font-weight="600" fill="#1c1a17">tracks.ts</text>
<rect x="948" y="536" width="492" height="178" rx="16" fill="#f4ecf6" stroke="#d8ccdf" stroke-width="1.5" />
<text x="964" y="558" font-family="Segoe UI, Arial" font-size="13" font-weight="700" letter-spacing="1.5" fill="#6b655c">HOOKS</text>
<rect x="968" y="566" width="452" height="40" rx="10" fill="#fff" stroke="#dcc9e6" stroke-width="1.5"/>
<text x="1194" y="586" text-anchor="middle" dominant-baseline="central" font-family="Segoe UI, Arial" font-size="13" font-weight="600" fill="#1c1a17">useProgress</text>
<rect x="968" y="616" width="452" height="40" rx="10" fill="#fff" stroke="#dcc9e6" stroke-width="1.5"/>
<text x="1194" y="636" text-anchor="middle" dominant-baseline="central" font-family="Segoe UI, Arial" font-size="13" font-weight="600" fill="#1c1a17">useStoreState</text>
<rect x="968" y="666" width="452" height="40" rx="10" fill="#fff" stroke="#dcc9e6" stroke-width="1.5"/>
<text x="1194" y="686" text-anchor="middle" dominant-baseline="central" font-family="Segoe UI, Arial" font-size="13" font-weight="600" fill="#1c1a17">useTheme</text>
<line x1="620" y1="506" x2="470" y2="536" stroke="#6b655c" stroke-width="2" marker-end="url(#ah)" />
<line x1="880" y1="506" x2="1150" y2="536" stroke="#6b655c" stroke-width="2" marker-end="url(#ah)" />
<rect x="230" y="748" width="340" height="64" rx="10" fill="#fff" stroke="#3f3a8c" stroke-width="1.5"/>
<text x="400" y="774" text-anchor="middle" font-family="Segoe UI, Arial" font-size="14" font-weight="700" fill="#1c1a17">status.ts</text>
<text x="400" y="793" text-anchor="middle" font-family="Segoe UI, Arial" font-size="11.5" fill="#6b655c">weekStatus · programStatus · belts · pass-gate</text>
<rect x="900" y="748" width="340" height="64" rx="10" fill="#fff" stroke="#cc6a44" stroke-width="2"/>
<text x="1070" y="774" text-anchor="middle" font-family="Segoe UI, Arial" font-size="14" font-weight="700" fill="#1c1a17">store.ts</text>
<text x="1070" y="793" text-anchor="middle" font-family="Segoe UI, Arial" font-size="11.5" fill="#6b655c">cached snapshots · append-only event log</text>
<line x1="400" y1="748" x2="430" y2="714" stroke="#3f3a8c" stroke-width="2" marker-end="url(#ah)" />
<text x="430" y="736" font-family="Segoe UI, Arial" font-size="11" fill="#6b655c">reads WEEKS</text>
<line x1="1174" y1="714" x2="1070" y2="748" stroke="#3a1f5c" stroke-width="2" marker-end="url(#ah)" />
<rect x="900" y="858" width="340" height="52" rx="10" fill="#3a1f5c" stroke="#28133f" stroke-width="1.5"/>
<text x="1070" y="878" text-anchor="middle" font-family="Segoe UI, Arial" font-size="14" font-weight="700" fill="#fff">localStorage</text>
<text x="1070" y="897" text-anchor="middle" font-family="Segoe UI, Arial" font-size="11.5" fill="#b9a6cf">progress · quiz · events · profile</text>
<line x1="1070" y1="812" x2="1070" y2="858" stroke="#3a1f5c" stroke-width="2" marker-end="url(#ah)" />
<rect x="40" y="946" width="1400" height="110" rx="16" fill="#fbf3e6" stroke="#cc6a44" stroke-width="2" stroke-dasharray="8 6"/>
<text x="56" y="968" font-family="Segoe UI, Arial" font-size="13" font-weight="700" letter-spacing="1.5" fill="#6b655c">FUTURE — not built yet · to add SSO + per-user tracking, swap only store.ts</text>
<rect x="300" y="982" width="220" height="52" rx="10" fill="#fff" stroke="#cc6a44" stroke-width="1.5"/>
<text x="410" y="1002" text-anchor="middle" font-family="Segoe UI, Arial" font-size="14" font-weight="700" fill="#1c1a17">SSO / auth</text>
<text x="410" y="1021" text-anchor="middle" font-family="Segoe UI, Arial" font-size="11.5" fill="#6b655c">identity token</text>
<rect x="590" y="982" width="320" height="52" rx="10" fill="#fff" stroke="#cc6a44" stroke-width="1.5"/>
<text x="750" y="1002" text-anchor="middle" font-family="Segoe UI, Arial" font-size="14" font-weight="700" fill="#1c1a17">Backend API</text>
<text x="750" y="1021" text-anchor="middle" font-family="Segoe UI, Arial" font-size="11.5" fill="#6b655c">per-user progress + events</text>
<rect x="980" y="982" width="300" height="52" rx="10" fill="#fff" stroke="#cc6a44" stroke-width="1.5"/>
<text x="1130" y="1002" text-anchor="middle" font-family="Segoe UI, Arial" font-size="14" font-weight="700" fill="#1c1a17">Cohort DB</text>
<text x="1130" y="1021" text-anchor="middle" font-family="Segoe UI, Arial" font-size="11.5" fill="#6b655c">transaction / audit store</text>
<line x1="520" y1="1008" x2="590" y2="1008" stroke="#cc6a44" stroke-width="2" marker-end="url(#ah)" />
<line x1="910" y1="1008" x2="980" y2="1008" stroke="#cc6a44" stroke-width="2" marker-end="url(#ah)" />
<path d="M900,790 L640,790 L640,946" fill="none" stroke="#cc6a44" stroke-width="2" marker-end="url(#ah)" stroke-dasharray="7 5"/>
<text x="650" y="884" font-family="Segoe UI, Arial" font-size="12" font-weight="700" fill="#cc6a44">swap only store.ts</text>
</svg>